<?xml version="1.0" encoding="utf-8"?>
<!-- Generator: Adobe Illustrator 19.1.0, SVG Export Plug-In . SVG Version: 6.00 Build 0)  -->
<svg version="1.1" id="Layer_1" xmlns="http://www.w3.org/2000/svg" xmlns:xlink="http://www.w3.org/1999/xlink" x="0px" y="0px"
	 viewBox="0 0 33 33.4" style="enable-background:new 0 0 33 33.4;" xml:space="preserve">
<style type="text/css">
	.st0{fill:#FFD517;}
</style>
<g>
	<g>
		<path class="st0" d="M17.1,2.9c0-1,0.9-1.7,1.9-1.6c7.2,0.9,12.8,7.1,12.8,14.5S26.2,29.4,19,30.3c-1,0.1-1.9-0.6-1.9-1.6V2.9z"/>
	</g>
	<g>
		<path class="st0" d="M22.8,28l4.3,4.1c0.4,0.4,1,0.1,1-0.4v-6.3"/>
	</g>
	<g>
		<path class="st0" d="M11,13.4H2.7c-0.8,0-1.5-0.7-1.5-1.5V2.8c0-0.8,0.7-1.5,1.5-1.5H11c0.8,0,1.5,0.7,1.5,1.5v9.1
			C12.5,12.7,11.8,13.4,11,13.4z"/>
	</g>
	<g>
		<path class="st0" d="M11,30.2H2.7c-0.8,0-1.5-0.7-1.5-1.5v-9.1c0-0.8,0.7-1.5,1.5-1.5H11c0.8,0,1.5,0.7,1.5,1.5v9.1
			C12.5,29.5,11.8,30.2,11,30.2z"/>
	</g>
</g>
</svg>
